<svg width="44" height="44" viewBox="0 0 44 44" fill="none" xmlns="http://www.w3.org/2000/svg">
<path d="M29.3333 38.5V34.8333C29.3333 32.8884 28.5606 31.0232 27.1854 29.6479C25.8101 28.2726 23.9448 27.5 21.9999 27.5H9.16659C7.22166 27.5 5.3564 28.2726 3.98114 29.6479C2.60587 31.0232 1.83325 32.8884 1.83325 34.8333V38.5M36.6666 14.6667V25.6667M42.1666 20.1667H31.1666M22.9166 12.8333C22.9166 16.8834 19.6333 20.1667 15.5833 20.1667C11.5332 20.1667 8.24992 16.8834 8.24992 12.8333C8.24992 8.78325 11.5332 5.5 15.5833 5.5C19.6333 5.5 22.9166 8.78325 22.9166 12.8333Z" stroke="#101828" stroke-width="2" stroke-linecap="round" stroke-linejoin="round"/>
</svg>
