<svg width="25" height="27" viewBox="0 0 25 27" fill="none" xmlns="http://www.w3.org/2000/svg">
<path d="M8.35766 16.66L8.49266 16.51L8.61266 16.435L8.74766 16.51C8.94266 16.36 9.10766 16.195 9.24266 16.03C9.37766 15.865 9.63266 15.43 10.0377 14.755L10.9677 13.18C11.4627 12.34 14.0577 8.815 14.6427 8.155C15.9927 6.61 16.4427 6.145 16.6227 5.905C16.7877 5.695 16.8927 5.53 16.8927 5.41C16.8927 5.335 16.8477 5.215 16.7727 5.215C16.6977 5.215 16.5777 5.275 16.4277 5.38L16.5477 5.11L16.0377 5.41L16.0677 5.2C16.0377 5.29 15.7977 5.53 15.7377 5.53C15.6927 5.53 15.6777 5.485 15.6777 5.41V5.35L15.2577 5.56C15.2277 5.56 15.1977 5.545 15.1977 5.5C15.1977 5.455 15.2277 5.35 15.2577 5.2C15.0477 5.425 14.7477 5.68 14.3577 5.95C13.8327 6.31 11.7927 8.875 10.9677 10.21C10.4127 11.095 10.1877 11.62 10.0977 11.62C10.0677 11.62 10.0527 11.56 10.0377 11.44C9.76766 12.055 9.52766 12.565 9.28766 12.94C9.04766 13.315 8.82266 13.51 8.65766 13.51C8.46266 13.51 8.29766 13.135 8.11766 12.37C8.04266 12.04 7.87766 11.83 7.63766 11.71L7.59266 11.695C7.54766 11.695 7.48766 11.725 7.41266 11.77C7.33766 11.815 7.29266 11.86 7.26266 11.86H7.24766L6.97766 11.77L6.73766 12.13C6.70766 12.175 6.64766 12.19 6.60266 12.19C6.52766 12.19 6.46766 12.175 6.43766 12.13C6.37766 12.34 6.30266 12.445 6.24266 12.445C6.19766 12.445 6.10766 12.415 5.98766 12.34C6.09266 13.135 6.18266 13.66 6.27266 13.915C6.45266 14.41 6.85766 15.535 7.24766 16.285C7.29266 16.375 7.35266 16.48 7.39766 16.57C7.54766 16.48 7.59266 16.465 7.69766 16.465L7.81766 16.48C7.89266 16.51 7.93766 16.555 7.93766 16.63L8.28266 16.465C8.34266 16.465 8.35766 16.525 8.35766 16.66Z" fill="black"/>
<rect x="0.5" y="0.5" width="22" height="22" stroke="black"/>
</svg>
