<svg width="24" height="24" viewBox="0 0 24 24" fill="none" xmlns="http://www.w3.org/2000/svg">
<path d="M7.31135 12.1241C8.3094 14.1645 9.96336 15.8109 12.0083 16.7997C12.1579 16.8706 12.3234 16.9013 12.4885 16.8888C12.6536 16.8763 12.8126 16.8211 12.9499 16.7285L15.9609 14.7206C16.0941 14.6318 16.2473 14.5776 16.4067 14.563C16.5661 14.5484 16.7266 14.5737 16.8737 14.6368L22.5069 17.051C22.6982 17.1322 22.858 17.2735 22.9621 17.4535C23.0662 17.6335 23.1089 17.8424 23.084 18.0488C22.9059 19.442 22.2261 20.7226 21.1719 21.6507C20.1177 22.5788 18.7613 23.0908 17.3568 23.0909C13.0187 23.0909 8.85829 21.3676 5.7908 18.3001C2.7233 15.2326 1 11.0722 1 6.73411C1.00007 5.32956 1.5121 3.97319 2.44022 2.91898C3.36833 1.86477 4.64888 1.18499 6.0421 1.00695C6.2485 0.981969 6.45743 1.02475 6.63741 1.12883C6.81739 1.23292 6.95866 1.39268 7.03995 1.58403L9.45625 7.22206C9.51875 7.36789 9.54421 7.52692 9.53038 7.68497C9.51654 7.84303 9.46384 7.99521 9.37695 8.12797L7.37608 11.1852C7.28501 11.3227 7.23118 11.4815 7.21983 11.6461C7.20849 11.8107 7.24002 11.9753 7.31135 12.1241Z" stroke="#7D7D7D" stroke-width="1.6" stroke-linecap="round" stroke-linejoin="round"/>
</svg>
