<?xml version="1.0" standalone="no"?>
<!DOCTYPE svg PUBLIC "-//W3C//DTD SVG 20010904//EN"
 "http://www.w3.org/TR/2001/REC-SVG-20010904/DTD/svg10.dtd">
<svg version="1.0" xmlns="http://www.w3.org/2000/svg"
 width="512.000000pt" height="512.000000pt" viewBox="0 0 512.000000 512.000000"
 preserveAspectRatio="xMidYMid meet">
<metadata>
Created by potrace 1.14, written by Peter Selinger 2001-2017
</metadata>
<g transform="translate(0.000000,512.000000) scale(0.100000,-0.100000)"
fill="#000000" stroke="none">
<path d="M3765 4819 c-16 -6 -70 -9 -120 -8 -187 4 -282 3 -345 -5 -81 -11
-86 -11 -135 -2 -52 9 -172 8 -209 -2 -36 -10 -42 -24 -20 -46 19 -19 16 -25
-17 -31 -60 -12 -418 -88 -451 -96 -20 -5 -40 -14 -44 -20 -4 -6 -6 -44 -6
-85 1 -69 -1 -74 -21 -75 -12 -1 -46 -3 -74 -4 -66 -4 -70 14 -17 63 20 19 32
37 28 42 -5 4 -29 10 -54 14 -96 12 -124 21 -180 60 -45 31 -98 81 -157 151
-23 27 -36 35 -45 28 -15 -11 -592 -11 -626 1 -19 6 -29 0 -65 -40 -141 -160
-212 -204 -334 -204 -23 0 -45 -5 -48 -10 -4 -6 12 -28 34 -50 62 -61 46 -98
-49 -115 -38 -7 -80 -30 -80 -45 0 -13 41 -50 65 -60 16 -6 8 -10 -36 -19 -60
-13 -128 -51 -148 -82 -19 -32 2 -52 86 -83 76 -28 127 -55 108 -57 -6 0 -44
-2 -85 -3 -42 -2 -86 -9 -99 -15 -12 -7 -24 -11 -25 -9 -71 118 -134 159 -244
160 -102 0 -198 -54 -208 -119 -7 -43 41 -96 120 -133 84 -39 142 -104 153
-172 3 -18 11 -66 18 -105 6 -40 9 -73 6 -73 -3 0 -15 7 -25 15 -17 13 -22 10
-56 -38 -20 -29 -101 -144 -180 -257 -79 -113 -152 -214 -162 -226 -20 -22
-28 -13 126 -147 12 -10 37 -33 56 -50 20 -18 54 -48 76 -68 l40 -36 -57 -12
c-67 -13 -146 -63 -170 -106 -32 -56 -32 -73 -4 -101 21 -21 33 -25 66 -22 21
2 39 3 39 1 0 -1 -9 -17 -20 -35 -24 -41 -49 -112 -55 -155 -3 -18 -7 -48 -10
-67 -3 -23 0 -38 11 -47 20 -16 31 -3 37 46 16 119 64 230 121 284 32 30 32
27 2 -40 -40 -91 -56 -183 -52 -299 4 -125 18 -170 47 -163 17 5 19 11 14 32
-14 55 -17 218 -5 275 l12 57 22 -24 c29 -32 60 -41 86 -27 26 14 59 84 60
124 0 32 8 31 15 -2 2 -11 6 -73 10 -139 l7 -118 -51 -38 c-59 -44 -123 -121
-150 -182 -23 -52 -42 -135 -36 -163 2 -11 6 -60 9 -108 4 -49 8 -111 11 -139
6 -59 12 -129 20 -240 13 -168 22 -223 49 -291 66 -170 192 -276 367 -310 42
-8 192 -7 238 1 59 10 81 -37 41 -88 -39 -49 -36 -78 10 -133 125 -145 146
-169 162 -185 14 -15 39 -17 180 -17 97 0 168 4 176 10 6 6 12 26 12 45 0 38
-5 35 109 55 l83 15 92 -32 c225 -78 388 -103 646 -100 256 3 419 32 630 112
110 41 257 114 315 155 183 132 302 250 391 389 l55 87 87 8 c48 4 96 8 107 9
11 1 56 5 100 9 44 3 91 8 105 11 14 2 61 7 105 10 44 3 94 8 110 10 36 5 181
17 214 18 l23 1 -6 112 c-4 62 -9 129 -11 150 -2 22 -7 73 -10 114 -5 69 -8
77 -44 115 -21 22 -43 58 -49 80 -10 35 -68 254 -147 550 -15 55 -28 107 -30
115 -2 8 -9 31 -14 50 -17 55 -14 59 32 36 35 -17 42 -25 39 -44 -7 -35 53
-86 121 -101 126 -28 272 33 259 109 -2 11 11 23 39 35 59 27 153 120 184 182
74 150 47 317 -71 435 -56 57 -66 65 -109 85 -25 12 -42 30 -54 59 -10 22 -34
52 -52 66 -39 29 -94 50 -104 40 -4 -4 -5 7 -2 23 4 17 9 50 12 75 3 25 8 61
11 80 2 19 4 69 5 110 0 60 -3 77 -17 87 -24 17 -28 17 -56 -11 l-24 -25 -89
40 c-50 22 -99 44 -110 49 -11 6 -76 35 -145 65 -69 30 -124 58 -123 62 0 5 4
42 8 83 l6 75 -38 26 c-35 25 -38 31 -40 79 -3 91 -62 178 -122 183 -20 1 -12
12 55 74 l79 72 70 -3 c73 -3 127 7 159 30 19 13 19 14 -5 22 -26 10 -96 21
-142 21 l-28 1 23 30 c14 20 31 30 47 30 67 0 123 33 105 61 -10 17 -79 47
-136 59 -32 6 -61 17 -65 23 -14 22 -59 45 -114 60 -64 17 -192 20 -234 6z
m-396 -83 c10 -11 8 -16 -9 -21 -21 -7 -50 9 -50 26 0 14 47 10 59 -5z m-75
-27 c14 -11 26 -25 26 -30 0 -11 -55 19 -72 39 -18 21 16 14 46 -9z m-33 -38
c43 -43 133 -101 158 -101 8 0 47 -23 87 -50 82 -57 148 -89 181 -90 19 0 24
-7 29 -41 8 -48 54 -98 92 -101 15 0 32 -2 37 -3 99 -15 102 -16 114 -41 6
-14 11 -39 11 -55 l0 -31 -62 35 c-35 19 -99 56 -143 81 -68 39 -86 45 -120
42 -22 -3 -67 -8 -100 -11 -33 -3 -71 -8 -85 -10 -14 -3 -51 -7 -82 -11 l-58
-6 5 116 4 117 -100 97 c-98 95 -100 97 -72 102 49 10 61 5 104 -39z m639 -6
c23 -12 20 -13 -36 -13 -54 1 -61 3 -57 19 4 14 12 17 37 12 17 -3 42 -12 56
-18z m268 -59 c1 -2 -8 -14 -20 -28 -18 -20 -34 -27 -74 -30 l-51 -3 20 27
c11 14 17 30 14 35 -5 8 102 6 111 -1z m-571 -61 c5 -16 -44 -12 -59 3 -11 11
-7 13 21 10 19 -2 36 -8 38 -13z m413 -15 c0 -6 15 -19 33 -30 17 -11 28 -20
22 -20 -5 0 -32 -21 -60 -46 -55 -49 -59 -52 -96 -76 -24 -15 -57 -21 -106
-19 -24 1 -48 30 -58 72 -6 23 -2 28 24 37 17 6 42 22 57 35 14 14 43 27 63
30 55 9 95 18 100 23 8 8 21 4 21 -6z m-324 -18 c7 -1 14 -13 16 -27 6 -32 -7
-32 -75 -3 -46 20 -49 23 -27 28 22 6 53 6 86 2z m120 -14 c6 -7 -47 -38 -64
-38 -7 0 -10 42 -3 46 6 3 62 -4 67 -8z m-2985 -265 c2 -10 5 -163 4 -163 -1
0 -39 16 -85 35 -47 19 -91 35 -97 35 -19 0 -16 24 5 43 43 39 169 75 173 50z
m-351 -114 c36 -21 100 -95 100 -117 0 -10 -135 -92 -152 -92 -4 0 -11 -13
-14 -29 l-6 -30 -36 35 c-20 19 -61 46 -93 60 -68 31 -101 63 -101 99 0 86
195 134 302 74z m4205 -451 c-3 -31 -2 -30 -26 -18 -16 9 -18 14 -8 26 18 21
37 17 34 -8z m1 -136 c-2 -4 -8 -34 -11 -67 -4 -32 -9 -66 -10 -74 -2 -9 -4
-24 -4 -33 -1 -15 -37 -35 -46 -26 -8 8 60 208 70 208 4 0 4 -4 1 -8z m-4288
-834 c16 -16 -16 -42 -105 -84 -79 -38 -156 -54 -168 -35 -16 28 64 100 135
122 39 12 125 10 138 -3z m38 -130 c-14 -130 -39 -185 -71 -158 -17 14 -20 57
-5 95 10 27 72 125 78 125 3 0 1 -28 -2 -62z"/>
</g>
</svg>
