<svg width="107" height="107" viewBox="0 0 107 107" fill="none" xmlns="http://www.w3.org/2000/svg">
<g clip-path="url(#clip0_173_1496)">
<path d="M104.869 27.5771C104.264 25.3008 103.072 23.2232 101.412 21.5524C99.7514 19.8816 97.6815 18.6761 95.409 18.0566C87.0436 15.8071 53.6061 15.8071 53.6061 15.8071C53.6061 15.8071 20.1686 15.8071 11.8031 18.0566C9.53068 18.6761 7.46081 19.8816 5.80065 21.5524C4.1405 23.2232 2.94829 25.3008 2.34335 27.5771C0.106079 35.9791 0.106079 53.5003 0.106079 53.5003C0.106079 53.5003 0.106079 71.0216 2.34335 79.4235C2.94829 81.6999 4.1405 83.7774 5.80065 85.4482C7.46081 87.1191 9.53068 88.3246 11.8031 88.9441C20.1686 91.1935 53.6061 91.1935 53.6061 91.1935C53.6061 91.1935 87.0436 91.1935 95.409 88.9441C97.6815 88.3246 99.7514 87.1191 101.412 85.4482C103.072 83.7774 104.264 81.6999 104.869 79.4235C107.106 71.0216 107.106 53.5003 107.106 53.5003C107.106 53.5003 107.106 35.9791 104.869 27.5771Z" fill="#FF0302"/>
<path d="M42.6633 69.4102V37.5898L70.6292 53.5L42.6633 69.4102Z" fill="#FEFEFE"/>
</g>
<defs>
<clipPath id="clip0_173_1496">
<rect width="107" height="107" fill="white"/>
</clipPath>
</defs>
</svg>
